<?xml version="1.0" encoding="UTF-8" standalone="no"?>
<!-- Created with Inkscape (http://www.inkscape.org/) -->

<svg
   width="141mm"
   height="24mm"
   viewBox="0 0 141 24"
   version="1.1"
   id="svg1"
   inkscape:version="1.4.2 (ebf0e940d0, 2025-05-08)"
   sodipodi:docname="Logo (2).svg"
   inkscape:export-filename="Logo.png"
   inkscape:export-xdpi="300"
   inkscape:export-ydpi="300"
   xmlns:inkscape="http://www.inkscape.org/namespaces/inkscape"
   xmlns:sodipodi="http://sodipodi.sourceforge.net/DTD/sodipodi-0.dtd"
   xmlns="http://www.w3.org/2000/svg"
   xmlns:svg="http://www.w3.org/2000/svg">
  <sodipodi:namedview
     id="namedview1"
     pagecolor="#ffffff"
     bordercolor="#000000"
     borderopacity="0.25"
     inkscape:showpageshadow="2"
     inkscape:pageopacity="0.0"
     inkscape:pagecheckerboard="0"
     inkscape:deskcolor="#d1d1d1"
     inkscape:document-units="mm"
     inkscape:zoom="1.7090923"
     inkscape:cx="432.10071"
     inkscape:cy="180.50517"
     inkscape:window-width="2560"
     inkscape:window-height="1357"
     inkscape:window-x="0"
     inkscape:window-y="0"
     inkscape:window-maximized="1"
     inkscape:current-layer="layer2"
     showguides="true" />
  <defs
     id="defs1">
    <inkscape:path-effect
       effect="powerstroke"
       id="path-effect28"
       is_visible="true"
       lpeversion="1.3"
       scale_width="1"
       interpolator_type="CubicBezierJohan"
       interpolator_beta="0.2"
       start_linecap_type="zerowidth"
       end_linecap_type="zerowidth"
       offset_points="0,4.9921382"
       linejoin_type="extrp_arc"
       miter_limit="4"
       not_jump="false"
       sort_points="true"
       message="" />
    <inkscape:path-effect
       effect="spiro"
       id="path-effect27"
       is_visible="true"
       lpeversion="1" />
    <inkscape:path-effect
       effect="spiro"
       id="path-effect26"
       is_visible="true"
       lpeversion="1" />
    <inkscape:path-effect
       effect="spiro"
       id="path-effect24"
       is_visible="true"
       lpeversion="1" />
    <inkscape:path-effect
       effect="spiro"
       id="path-effect23"
       is_visible="true"
       lpeversion="1" />
    <inkscape:path-effect
       effect="fill_between_many"
       method="bsplinespiro"
       autoreverse="false"
       close="false"
       join="false"
       linkedpaths="#path26,0,1"
       id="path-effect29"
       is_visible="true"
       lpeversion="0" />
  </defs>
  <g
     inkscape:label="Logo"
     inkscape:groupmode="layer"
     id="layer1"
     style="display:inline">
    <path
       style="font-size:25.4px;font-family:'Josefin Sans';-inkscape-font-specification:'Josefin Sans, Normal';fill:#747474;stroke-width:0.264583"
       d="M 21.374277,20.153206 V 1.2048055 h 0.0254 l 9.6266,13.6652005 -1.0414,-0.2032 9.6012,-13.4620005 h 0.0508 V 20.153206 h -2.4384 V 6.7928055 l 0.1524,1.2446 -6.9342,9.8044005 h -0.0508 l -7.0358,-9.8044005 0.4318,-1.143 V 20.153206 Z m 27.330401,0.254 q -1.4732,0 -2.6924,-0.635 -1.1938,-0.635 -1.905,-1.8542 -0.6858,-1.2446 -0.6858,-3.0226 0,-1.7526 0.7366,-3.0226 0.7366,-1.2954 1.9558,-1.9812005 1.2446,-0.6858 2.7178,-0.6858 1.4732,0 2.4892,0.6858 1.016,0.6604005 1.5494,1.5748005 l -0.1524,0.4064 0.2286,-2.2352005 h 2.1844 V 20.153206 h -2.3622 v -2.7432 l 0.254,0.6096 q -0.1016,0.254 -0.4572,0.6604 -0.3302,0.381 -0.9144,0.7874 -0.5588,0.4064 -1.2954,0.6858 -0.7366,0.254 -1.651,0.254 z m 0.635,-1.9558 q 0.889,0 1.6002,-0.3302 0.7112,-0.3302 1.1684,-0.9144 0.4826,-0.6096 0.6604,-1.4478 v -2.0574 q -0.2032,-0.762 -0.7112,-1.3208 -0.508,-0.5842 -1.2192,-0.889 -0.7112,-0.3302 -1.5748,-0.3302 -0.9398,0 -1.7272,0.4572 -0.7874,0.4572 -1.27,1.27 -0.4572,0.8128 -0.4572,1.905 0,1.016 0.4826,1.8542 0.4826,0.8382 1.2954,1.3208 0.8128,0.4826 1.7526,0.4826 z m 9.880613,1.7018 V 0.49360554 h 2.3622 V 20.153206 Z m 4.9022,-6.985 4.826,6.985 h -2.7686 l -3.6322,-5.6642 z m -3.2766,3.6322 -0.2286,-2.2606 6.3754,-5.1308005 1.4478,1.2446005 z m 15.50665,3.6068 q -1.8034,0 -3.0988,-0.7112 -1.2954,-0.7366 -2.0066,-1.9812 -0.6858,-1.27 -0.6858,-2.8956 0,-1.5494 0.7874,-2.8194 0.7874,-1.27 2.1082,-2.0320005 1.3208,-0.762 2.9464,-0.762 2.0828,0 3.4544,1.2192005 1.3716,1.2192 1.8542,3.3528 l -8.6614,3.048 -0.5588,-1.397 7.112,-2.5908 -0.508,0.3302 q -0.3048,-0.8382 -1.016,-1.4478 -0.7112,-0.635 -1.8542,-0.635 -0.9652,0 -1.7272,0.4826 -0.762,0.4572 -1.1938,1.27 -0.4318,0.8128 -0.4318,1.8542 0,1.0922 0.4572,1.9304 0.4572,0.8128 1.2446,1.2954 0.8128,0.4572 1.8288,0.4572 0.6858,0 1.3208,-0.254 0.6604,-0.254 1.2192,-0.6604 l 1.0922,1.7526 q -0.7874,0.5334 -1.778,0.8636 -0.9652,0.3302 -1.905,0.3302 z m 10.43941,-10.7696005 0.2286,3.0480005 -0.127,-0.4064 q 0.4064,-0.9652 1.1684,-1.6256 0.7874,-0.6858005 1.6256,-1.0414005 0.8636,-0.381 1.4986,-0.381 l -0.127,2.3368005 q -1.1938,-0.0762 -2.1082,0.4572 -0.889,0.5334 -1.4224,1.4224 -0.508,0.889 -0.508,1.905 v 4.8006 h -2.3368 V 9.6376055 Z m 8.45819,-4.6228 h 2.3622 v 4.6736 h 2.895599 v 1.8542005 h -2.895599 v 8.6106 h -2.3622 v -8.6106 h -1.9304 V 9.6884055 h 1.9304 z m 10.210779,4.6228 0.2286,3.0480005 -0.127,-0.4064 q 0.4064,-0.9652 1.1684,-1.6256 0.7874,-0.6858005 1.6256,-1.0414005 0.8636,-0.381 1.4986,-0.381 l -0.127,2.3368005 q -1.1938,-0.0762 -2.1082,0.4572 -0.889,0.5334 -1.4224,1.4224 -0.508,0.889 -0.508,1.905 v 4.8006 h -2.3368 V 9.6376055 Z m 11.86179,10.7696005 q -1.8034,0 -3.0988,-0.7112 -1.2954,-0.7366 -2.0066,-1.9812 -0.6858,-1.27 -0.6858,-2.8956 0,-1.5494 0.7874,-2.8194 0.7874,-1.27 2.1082,-2.0320005 1.3208,-0.762 2.9464,-0.762 2.0828,0 3.4544,1.2192005 1.3716,1.2192 1.8542,3.3528 l -8.6614,3.048 -0.5588,-1.397 7.112,-2.5908 -0.508,0.3302 q -0.3048,-0.8382 -1.016,-1.4478 -0.7112,-0.635 -1.8542,-0.635 -0.9652,0 -1.7272,0.4826 -0.762,0.4572 -1.1938,1.27 -0.4318,0.8128 -0.4318,1.8542 0,1.0922 0.4572,1.9304 0.4572,0.8128 1.2446,1.2954 0.8128,0.4572 1.8288,0.4572 0.6858,0 1.3208,-0.254 0.6604,-0.254 1.2192,-0.6604 l 1.0922,1.7526 q -0.7874,0.5334 -1.778,0.8636 -0.9652,0.3302 -1.905,0.3302 z m 9.19481,-0.254 v -8.4074 h -1.8034 V 9.6376055 h 1.8034 v -4.445 q 0,-2.286 1.016,-3.5052 1.0414,-1.21919996 3.048,-1.21919996 0.5334,0 1.1684,0.1524 0.6604,0.1524 1.143,0.50799996 l -0.9906,1.7018 q -0.2286,-0.2286 -0.508,-0.3048 -0.2794,-0.1016 -0.5588,-0.1016 -0.9398,0 -1.4478,0.635 -0.508,0.635 -0.508,2.159 v 4.4196 h 3.3274 v 2.1082005 h -3.3274 v 8.4074 z m 7.747,0 v -8.4074 h -1.8034 V 9.6376055 h 1.8034 v -4.445 q 0,-2.286 1.016,-3.5052 1.0414,-1.21919996 3.048,-1.21919996 0.5334,0 1.1684,0.1524 0.6604,0.1524 1.143,0.50799996 l -0.9906,1.7018 q -0.2286,-0.2286 -0.508,-0.3048 -0.2794,-0.1016 -0.5588,-0.1016 -0.9398,0 -1.4478,0.635 -0.508,0.635 -0.508,2.159 v 4.4196 h 3.3274 v 2.1082005 h -3.3274 v 8.4074 z"
       id="text1"
       inkscape:label="Makertreff"
       aria-label="Makertreff" />
    <g
       id="g2"
       inkscape:label="Düse"
       transform="matrix(1.2008873,0,0,1.1657817,-63.222187,-62.457734)"
       style="display:inline">
      <path
         id="rect1"
         style="display:inline;fill:#e6bf00;fill-opacity:1;stroke-width:0.290806"
         d="m 129.11607,61.863828 v 1.628352 h 1.41331 l 1.4339,1.504333 h 1.9657 l 1.44966,-1.504361 h 1.42179 v -1.628351 z"
         inkscape:label="Spitze"
         sodipodi:nodetypes="ccccccccc" />
      <rect
         style="display:inline;fill:#e6bf00;fill-opacity:1;stroke-width:0.271862"
         id="rect22"
         width="4.726994"
         height="3.9882643"
         x="130.59476"
         y="57.875538"
         inkscape:label="Schaft" />
      <g
         id="g1"
         inkscape:label="Gewinde"
         style="display:inline">
        <path
           style="display:inline;fill:#454545;fill-opacity:1;stroke-width:0.264583"
           d="m 130.59475,61 4.727,-0.602552 v -0.314192 l -4.727,0.611849 V 61"
           id="path30"
           inkscape:label="3" />
        <path
           style="display:inline;fill:#454545;fill-opacity:1;stroke-width:0.264583"
           d="m 130.59475,60 4.727,-0.602552 v -0.314192 l -4.727,0.611849 V 59.9519"
           id="path30-2"
           inkscape:label="2" />
        <path
           style="display:inline;fill:#454545;fill-opacity:1;stroke-width:0.264583"
           d="m 130.59475,59 4.727,-0.602552 v -0.314192 l -4.727,0.611849 V 59"
           id="path30-1"
           inkscape:label="1" />
      </g>
    </g>
    <g
       inkscape:groupmode="layer"
       id="layer2"
       inkscape:label="LED"
       style="display:inline">
      <path
         id="path3"
         style="display:inline;fill:#ff7474;fill-opacity:1;stroke-width:0.17721"
         d="m 8.7550546,0.77704554 c -3.944536,-8e-6 -7.142267,2.95158796 -7.142439,6.59267196 v 6.6636545 c -0.62213104,0.02479 -1.11408204,0.535684 -1.11535604,1.158307 0.0013,0.622623 0.493225,1.133519 1.11535604,1.158307 v 0.0041 H 15.793056 c 0.0084,6.92e-4 0.01687,0.0013 0.02532,0.0018 0.0084,-5.08e-4 0.01689,-0.0011 0.02532,-0.0018 h 0.02893 v -0.0023 -8.6615585 c 0.01111,-0.106647 0.0194,-0.213527 0.02486,-0.320547 -1.72e-4,-3.641084 -3.197903,-6.59267996 -7.1424394,-6.59267196 z"
         inkscape:label="LED-Körper"
         sodipodi:nodetypes="ccccccccccccccc" />
      <path
         id="rect5"
         style="display:inline;fill:#737373;fill-opacity:0.998294;stroke-width:0.158187"
         inkscape:label="Links"
         d="m 6.0746306,9.5129405 2.4,2.4000005 v 0 0 h 1.8000004 v 9.4 h 2.2 V 9.5129405 H 8.4746306 Z M 12.474631,19.712941 h 11.3 v 1.6 h -11.3 z"
         sodipodi:nodetypes="ccccccccccccccc" />
      <path
         id="rect5-3-4"
         style="display:inline;fill:#737373;fill-opacity:0.998294;stroke-width:0.109401"
         inkscape:label="Rechts"
         d="m 37.198477,20.153206 -0.0056,3.675607 2.441914,0.0044 0.0021,-3.680014 z M 4.9059975,9.5155905 l -0.00823,14.2999975 0.099681,-0.008 34.6373085,0.02562 -0.14845,-1.588036 -32.2950752,-0.01322 0.00593,-10.299998 v 0 z"
         sodipodi:nodetypes="cccccccccccccc" />
    </g>
  </g>
</svg>
